<?xml version="1.0" encoding="iso-8859-1"?>
<!-- Generator: Adobe Illustrator 19.1.0, SVG Export Plug-In . SVG Version: 6.00 Build 0)  -->
<svg version="1.1" id="Capa_1" xmlns="http://www.w3.org/2000/svg" xmlns:xlink="http://www.w3.org/1999/xlink" x="0px" y="0px"
	 viewBox="0 0 63.498 63.498" style="enable-background:new 0 0 63.498 63.498;" xml:space="preserve">
<g>
	<g id="group-96svg">
		<path id="path-1_146_" style="fill:#53ECF4;" d="M54.527,17.993C52.173,9.629,44.487,3.497,35.37,3.497
			c-10.99,0-19.899,8.909-19.899,19.9c0,2.329,1.403,5.538,2.139,7.615l15.617,31.179c0.872,1.741,3.357,1.743,4.231,0.003
			L53.13,31.012l0,0"/>
		<path id="path-2_146_" d="M30.343,63.17c-0.001,0-0.002,0-0.003,0c-1.471,0-2.795-0.904-3.455-2.221L11.269,29.727
			c-0.028-0.056-0.052-0.134-0.073-0.193c-0.133-0.376-0.288-0.799-0.453-1.239c-0.79-2.101-1.772-4.722-1.772-6.892
			C8.971,9.603,18.57,0,30.37,0c9.546,0,18.017,6.409,20.601,15.588c0.224,0.797-0.24,1.626-1.038,1.851
			c-0.792,0.224-1.625-0.24-1.85-1.039C45.862,8.509,38.578,2.997,30.37,2.997c-10.145,0-18.399,8.254-18.399,18.4
			c0,1.626,0.876,3.959,1.58,5.833c0.159,0.424,0.31,0.824,0.441,1.192l15.576,31.097c0.216,0.431,0.614,0.478,0.774,0.478h0.001
			c0.162,0,0.558-0.046,0.775-0.477L46.79,28.338c0.373-0.74,1.274-1.042,2.014-0.666c0.74,0.372,1.038,1.274,0.666,2.014
			L33.798,60.953C33.138,62.268,31.814,63.17,30.343,63.17z"/>
		<path id="path-3_145_" d="M37.56,23.227c-0.441,0-0.877-0.194-1.173-0.564l-6.762-8.467l-6.763,8.467
			c-0.516,0.646-1.461,0.753-2.108,0.236c-0.647-0.517-0.753-1.461-0.236-2.109l7.935-9.934c0.284-0.356,0.716-0.564,1.172-0.564
			l0,0c0.456,0,0.887,0.208,1.171,0.564l7.935,9.934c0.517,0.648,0.411,1.592-0.236,2.109C38.218,23.119,37.888,23.227,37.56,23.227
			z"/>
		<path id="path-4_140_" d="M29.685,34.67c-0.829,0-1.5-0.672-1.5-1.5v-21c0-0.828,0.671-1.5,1.5-1.5c0.828,0,1.5,0.672,1.5,1.5v21
			C31.185,33.998,30.513,34.67,29.685,34.67z"/>
	</g>
</g>
</svg>
